PathFileType	4	(X/Y/Z)	13_2_82_p0_0-324_filt_butterworth.trc
DataRate	CameraRate	NumFrames	NumMarkers	Units	OrigDataRate	OrigDataStartFrame	OrigNumFrames
59.0	59.0	7	27	m	59.0	81	324
Frame#	Time	RHip			RKnee			RAnkle			RBigToe			RSmallToe			RHeel			LHip			LKnee			LAnkle			LBigToe			LSmallToe			LHeel			Neck			Head			Nose			RShoulder			RElbow			RWrist			RThumb			RIndex			RPinky			LShoulder			LElbow			LWrist			LThumb			LIndex			LPinky			
		X1	Y1	Z1	X2	Y2	Z2	X3	Y3	Z3	X4	Y4	Z4	X5	Y5	Z5	X6	Y6	Z6	X7	Y7	Z7	X8	Y8	Z8	X9	Y9	Z9	X10	Y10	Z10	X11	Y11	Z11	X12	Y12	Z12	X13	Y13	Z13	X14	Y14	Z14	X15	Y15	Z15	X16	Y16	Z16	X17	Y17	Z17	X18	Y18	Z18	X19	Y19	Z19	X20	Y20	Z20	X21	Y21	Z21	X22	Y22	Z22	X23	Y23	Z23	X24	Y24	Z24	X25	Y25	Z25	X26	Y26	Z26	X27	Y27	Z27	
81	1.3728813559322033	0.27138981699429865	0.829147229734519	0.59689096687421	0.2575236089260127	0.9373524411508978	1.017553039475039	0.2698101279849133	1.2022399390597713	1.389483517133058	0.2569861403996414	1.0478295752820692	1.443643407047881	0.3062853862307179	1.0827917971311916	1.4445558314632965	0.2594830791328092	1.3441093455512811	1.4488715016238178	0.09565655503256254	0.7925454515609784	0.6016384237297625	0.08495476106391368	1.0097548423959593	1.0325982879854776	0.1054104381247708	1.24286818931931	1.399510090917534	0.10728820492270234	1.0672255561421182	1.4478623919804723	0.055744265289682196	1.119668644878445	1.43309759383111	0.12239537889975949	1.3473191707560315	1.4296878164369684	0.2212119537955664	0.7565965083420586	0.09670464760706782	0.2616291398761984	0.644745522641283	-0.09444245234661094	0.2625354616755375	0.6555927194534628	0.03275391864968295	0.35978477457247915	0.7406796350914235	0.14753221719057022	0.310604419405383	0.6896479803262249	0.3680998074641974	0.15859936598270177	0.7006692923836924	0.19931481712888366	0.0508968577705178	0.6874488564550227	0.1309285152979191	0.05741432112826753	0.7015755276594303	0.13290020742660513	0.06459009923057474	0.7288542038582368	0.16453349605365886	0.08309165485648205	0.7449888286496311	0.138829244814896	0.09596705508528273	0.6877210610546984	0.379513160451849	0.1932483507424184	0.6786562599099755	0.24536238903499746	0.17934119636166457	0.8239550565970322	0.10592906784975722	0.23197262092802928	0.6756342651942142	0.13391837435713475	0.17023482876431656	0.3918964905130322	0.2625849092928088
82	1.3898305084745763	0.27382927905481297	0.8241935503156421	0.5969902469929712	0.25745993727085625	0.9360841578631829	1.017035528431374	0.27018610346738703	1.2061202017484223	1.3901695364183413	0.2566754467399645	1.0519940349676256	1.4443355908713105	0.3062664268668067	1.0829615120546503	1.4445792388174272	0.26056724090171174	1.3381478066517107	1.4482454303150971	0.09656331504179094	0.7924792518579722	0.5999784517493354	0.08442423095132069	1.0105817420546643	1.0320244774403526	0.10542474456271797	1.2431296587874017	1.3995309145874384	0.10810606544893078	1.0719401619371902	1.4494058473925924	0.055976222999131034	1.1199722439367144	1.4339425816679858	0.12246444025467718	1.3474860006245337	1.4296980343493375	0.2214156279780255	0.7570864783783563	0.09719083931667966	0.26347599084046913	0.6502362206774969	-0.09577100347081541	0.266751580208448	0.6566963637512259	0.03400526305857679	0.36142789295504096	0.7451258729402485	0.1489228770681196	0.313246895228857	0.6925867082868062	0.37135036582988196	0.15944956951276518	0.6897392616930558	0.2006516047877875	0.05381659526940279	0.6838055146218901	0.1355525270380599	0.0598662991441344	0.6970765081282071	0.13630348772736908	0.06697187815087767	0.7333646745370721	0.16588835801781668	0.08509903947855088	0.7459058975648961	0.13948325173201098	0.0968363404646601	0.6882312286944031	0.3791470815394535	0.20163511245348015	0.6731194492185338	0.24730270244727204	0.20239475025468057	0.8369324838692812	0.09899830134219881	0.2399396372663215	0.6926118941194123	0.13079647201405067	0.1790167564154961	0.4110587265147711	0.26199414310314334
83	1.4067796610169492	0.2764104380698877	0.8214548455298858	0.5984510787329607	0.25744387449320816	0.9358914157801083	1.0170100949380048	0.2700646415732768	1.206635989747106	1.3891946761162441	0.2560662643484112	1.0609702573012478	1.4464708743364978	0.3062663543533658	1.0833053849646297	1.4446162216846101	0.260883343065393	1.3360024637931414	1.4480514132373064	0.09725731660755796	0.7930974912195656	0.5998165566251055	0.0843008266727397	1.0112494351023962	1.0319655866846453	0.10531820441591433	1.2435231673022924	1.3995927488129278	0.10917529233298065	1.0782391079461329	1.4513109341528694	0.0564035405057722	1.1212458584026255	1.4364246009883654	0.12253087277390334	1.3475112810890908	1.429653147786461	0.22213996550889203	0.7577168686056146	0.09803418165285736	0.264983586238122	0.6565755669607167	-0.09741712633089407	0.2707551673833334	0.6564582689282696	0.035501531347393915	0.36388537982324987	0.7506081851514351	0.1504083334348863	0.31567004385411196	0.6968431303909426	0.37544644942615146	0.16243647505310452	0.6776876577692199	0.2043995527918274	0.056300822470265965	0.6784747306630592	0.1402479622245651	0.06136347789945805	0.6944881519637188	0.14023222009006336	0.06999918614959824	0.738499202385067	0.16843887423822212	0.08559902456897274	0.7460974891429936	0.14095893479585153	0.0975873930359889	0.6896758894778146	0.3804901358088015	0.2079463374125839	0.6728739984167814	0.2486485021223644	0.21845002484534992	0.8449224452363948	0.09337087409499165	0.24796642412821834	0.7095911232401783	0.1275139247914768	0.18772458174996215	0.43007091284013005	0.26141535232933105
84	1.423728813559322	0.2785087206734168	0.8213252211390722	0.6001432542062748	0.25801285506307947	0.9348951970901953	1.0173706979361041	0.26980475503385487	1.2056275362435425	1.3879497631332092	0.25540399332394637	1.072367381387642	1.449896024244183	0.3063486933527429	1.0838155765835449	1.4446478701470795	0.26073402533423023	1.3361001458358197	1.4479793449259035	0.0977548905710917	0.7940594945935416	0.6008980339705139	0.08535000675328047	1.009263126510425	1.0326008092848067	0.10528414726036768	1.2434959767280935	1.3995841283100603	0.11003921163015355	1.0833589395730292	1.452943959255538	0.056793187255244834	1.1231662886312483	1.440162820536823	0.12259864174148223	1.3474108210437372	1.4295370303132553	0.2233730548528356	0.7586152725967954	0.09924351510904277	0.26660239707503747	0.6634685495040465	-0.09888350368682321	0.27434862814995864	0.6529848373931147	0.037607690177483916	0.36633962163906625	0.7549536140582918	0.15198702996881652	0.31788547151976076	0.7009709588521195	0.37920860584109695	0.1676444717736452	0.6674013580645902	0.2103673178004917	0.057575465762827974	0.674521656291578	0.14432038588715146	0.06130422201506585	0.6948128854827033	0.14368535786424044	0.0730642282175369	0.7436862294494955	0.17131442550433612	0.08494443390691549	0.7453098740618951	0.14262376888371428	0.09887913488283996	0.6918807233300952	0.38342595255247086	0.2108552362557232	0.676910195651579	0.24920247723482797	0.23288482163445123	0.8579527221564445	0.08944501611192698	0.2561460169829345	0.7282754630521521	0.123621155609764	0.19641168433778108	0.44918305097724587	0.26083311998987047
85	1.4406779661016949	0.2805052423640831	0.8210391700880086	0.6008635137873141	0.25943383077185095	0.9319541704773339	1.0181811355755792	0.2697573029422313	1.2051642893172598	1.3877842142396033	0.2553532662630469	1.079919709715806	1.4532655412602467	0.30649304988282317	1.0843034584881444	1.4446686146768601	0.2606128691219958	1.3366425192783526	1.4478804437944264	0.09885828223926264	0.7938831834861891	0.6024980838097937	0.08836228735383463	1.0017979156133814	1.0334787769198033	0.10531392657179438	1.243248976796797	1.3995313844688435	0.11043298999484728	1.0857086103975293	1.4537083759294136	0.056877013221717426	1.1248897781055702	1.4437447831918677	0.12264476046477113	1.3472299450822063	1.4293810267217284	0.22485698001601978	0.7596042289410184	0.10049184802802666	0.2690649000038627	0.6718389878488086	-0.10025133989097071	0.2783150425341958	0.6466569926040179	0.0404864290485284	0.3679538038734858	0.7574226496299707	0.15351434340647202	0.31965435481305243	0.7046492201693455	0.3827989758939959	0.17254996513062498	0.6635927038357567	0.21697431591690297	0.057185277765642265	0.6751885973695152	0.1475548114507643	0.05936736362122991	0.6973067886702654	0.14572977176973562	0.07436053026440424	0.7504794270996986	0.17404135286589145	0.08409224721494869	0.7449219212610462	0.14368497121099053	0.10058706494974881	0.6943967988369035	0.3871585509265846	0.21228445893388323	0.6793372820547846	0.2499908460119132	0.25276176537477457	0.8680142764135977	0.09063933141029382	0.26444032109541943	0.7503650194984455	0.11848553446188985	0.2050796744185004	0.4683562596992191	0.2602481775379792
86	1.4576271186440677	0.28314798633635213	0.8178889697138428	0.6006900100645498	0.261229311691775	0.9279794722370518	1.019337708531571	0.2700149815964997	1.205944461496974	1.3889428545197486	0.25645910910069786	1.079889178739189	1.4551550994050626	0.3065894705712848	1.0845639907043774	1.444677833377009	0.26074307822915976	1.336918094822519	1.4477485407332809	0.10121324579597708	0.7911890028753401	0.6038117970227225	0.09285755247007113	0.9895106778257283	1.033755430051555	0.10533819001927958	1.2429874134760854	1.399484428267192	0.11040103403682718	1.0856546395499838	1.4536577350982902	0.05666546910618405	1.1259693989390258	1.446123763326577	0.12265442442353852	1.3471091736794434	1.429284888531307	0.22679902995928727	0.7603376078334609	0.10152845099839468	0.27284066046928546	0.6825317884128703	-0.10210652379868297	0.2831488218999673	0.6405373039203963	0.04363654125339841	0.3689305688480998	0.7596764368044908	0.15485053875080723	0.3208228967318734	0.7077990971900587	0.3874592569236738	0.1768155625693123	0.664483166504087	0.22396560326789405	0.055955748250252874	0.6793782687097818	0.1517805573099878	0.056505646600181626	0.6988498284786903	0.1483594701133712	0.07331501543052614	0.7563844767872896	0.17877517024500134	0.08423089153512077	0.7478893417780238	0.14313539597719688	0.10183266233634321	0.6964268313847913	0.39077163275177085	0.21436755883861386	0.6769791441259722	0.2516766194659682	0.2751130265416827	0.862557034763232	0.10021090531335	0.2723721469299988	0.7736153511680366	0.11267780485655711	0.2138572955655529	0.48746814179868786	0.2596565611973245
87	1.4745762711864407	0.28655973905437354	0.8119190792038038	0.6004265131072611	0.262567062420917	0.9248291353979858	1.0206786402722523	0.27045241518636703	1.2075243346213558	1.390678322537585	0.2583338686621218	1.074740714087475	1.4550104425100063	0.3065277181469457	1.084545733893981	1.4446708630531657	0.2610031996972879	1.3369495863132301	1.4477339737012906	0.10419505263681003	0.7867177298261487	0.6044739378201481	0.0972433941019317	0.9770975279318925	1.0334997662185337	0.10533175167934007	1.2427146763021497	1.3994528480223587	0.10995793190933778	1.0834244764897791	1.4530605359243902	0.056386579137534705	1.126567943301062	1.4471769162445385	0.1226536773380052	1.3472953329742159	1.4293450975560722	0.22940541213966903	0.7606076165781626	0.10246661628778624	0.2773295472333333	0.6946691878863487	-0.1043012828480633	0.2881339636086562	0.6368579531526676	0.04639000099872785	0.37003520708894294	0.763580383024417	0.1559099751598032	0.3217898377954092	0.7103966061728203	0.3931727024715308	0.1829181288642685	0.662536981116656	0.23226269722515122	0.05698598266207864	0.6783825730237254	0.16145109012705527	0.05578309431077856	0.692434424765321	0.15691349480466735	0.0731736909382526	0.7502023683444543	0.18971426675459618	0.08653704372807457	0.7566036419560184	0.14002155499024066	0.10178367330881852	0.69715190512985	0.3933360965224611	0.2161975789073591	0.6729217039071062	0.2538268568322843	0.2909806721454145	0.8438429458300251	0.11672315661116457	0.2788977050321016	0.7854297330854444	0.11046217867229591	0.22310280627415585	0.5064849071274101	0.2590374744060647
